# xmcd
#
# Track frame offsets: 
#        150
#        12904
#        15403
#        25785
#        34478
#        45919
#        63079
#        79210
#        94625
#        108910
#        127407
#        136837
#        151751
#        175510
#        192884
#        218790
#        226673
#        250270
#        279069
#        299162
#        312809
#        330243
#
# Disc length: 4682 seconds
#
# Revision: 0
# Processed by: cddbd v1.5.2PL0 Copyright (c) Steve Scherf et al.
# Submitted via: ExactAudioCopy v0.95a5
#
DISCID=16124816
DTITLE=Thingers Gospel Singers - Thingers Gospel Singers live
DYEAR=2002
DGENRE=Gospel
TTITLE0=Use me Lord
TTITLE1=Begruessung
TTITLE2=Come and see the baby
TTITLE3=Carol of the bells
TTITLE4=African noel
TTITLE5=Only time
TTITLE6=In a country churchyard
TTITLE7=For the rest of my live
TTITLE8=Largo
TTITLE9=Joyful, joyful
TTITLE10=Didn't my Lord deliver Daniel
TTITLE11=Prayer of the children
TTITLE12=Amazing grace
TTITLE13=Lord, hidden into mysteries
TTITLE14=Do less, but do it
TTITLE15=Vorstellung
TTITLE16=Can you feel
TTITLE17=Shout hallelujah
TTITLE18=He set me free
TTITLE19=I will follow him
TTITLE20=Oh happy day
TTITLE21=Hymn
EXTD=
EXTT0=
EXTT1=
EXTT2=
EXTT3=
EXTT4=
EXTT5=
EXTT6=
EXTT7=
EXTT8=
EXTT9=
EXTT10=
EXTT11=
EXTT12=
EXTT13=
EXTT14=
EXTT15=
EXTT16=
EXTT17=
EXTT18=
EXTT19=
EXTT20=
EXTT21=
PLAYORDER=
